<?xml version="1.0" standalone="no"?><!DOCTYPE svg PUBLIC "-//W3C//DTD SVG 1.1//EN" "http://www.w3.org/Graphics/SVG/1.1/DTD/svg11.dtd"><svg t="1590914919480" class="icon" viewBox="0 0 1024 1024" version="1.1" xmlns="http://www.w3.org/2000/svg" p-id="3161" xmlns:xlink="http://www.w3.org/1999/xlink" width="1000" height="1000"><defs><style type="text/css"></style></defs><path d="M791.64783057 254.71413465c-1.75534819-1.38929788-4.15747219-1.63485159-6.11538612-0.60053084L233.29660546 536.51169693c-2.05561361 1.05581411-3.26709735 3.23453079-3.08863145 5.53569749 0.2025651 2.29986442 1.75665111 4.25582429 3.95751228 4.95796357l184.85609 58.75824989c1.94488667 0.61030113 4.04544297 0.15436671 5.53634927-1.20171346L680.28840262 374.15402645 476.10263837 615.84497366c-1.2349318 1.45573391-1.65634559 3.44556326-1.11182937 5.27907185 0.54321331 1.8348115 1.96703244 3.28077513 3.79858697 3.83571278l205.12368696 62.48258458c0.53018669 0.16739333 1.09033537 0.24425081 1.64462125 0.2442508 0.97570031 0 1.95400581-0.25597452 2.82288666-0.74577904 1.35477726-0.77639155 2.34480646-2.07710761 2.71085678-3.60123226L793.64612729 260.52664951C794.17175472 258.36030895 793.39015214 256.09301109 791.64783057 254.71413465z" p-id="3162" fill="#707070"></path><path d="M538.80732798 669.83349618l-56.69286599-17.43949929c-1.7123602-0.55623994-3.59992934-0.22210503-5.04654474 0.85455193-1.4563857 1.08056509-2.31289105 2.77989867-2.31289105 4.58084004l0 107.00069294c0 2.53564786 1.66937221 4.75800367 4.11187901 5.46861032 0.5126008 0.14524756 1.04669561 0.22275681 1.58274445 0.22275681 1.91101718 0 3.74387462-0.96723294 4.80229459-2.64637481l56.68635267-89.55793667c0.95681151-1.50197888 1.15742255-3.35828437 0.53539771-5.01397818C541.86208995 671.63574048 540.50535865 670.35716955 538.80732798 669.83349618z" p-id="3163" fill="#707070"></path></svg>